<svg width="80" height="80" viewBox="0 0 80 80" fill="none" xmlns="http://www.w3.org/2000/svg">
<path d="M39.9498 80C62.0326 80 80 62.0101 80 40C80 17.8895 62.0326 0 40.0502 0C18.0678 0 0 17.8895 0 40C0 62.0101 17.9674 80 39.9498 80ZM38.946 41.005V77.9899C29.611 77.7889 21.079 74.0704 14.5546 68.2412C21.1794 60.7035 24.8934 51.0553 25.1945 41.005H38.946ZM40.9536 41.005H54.7052C54.9059 51.0553 58.7202 60.7035 65.345 68.2412C58.8206 74.0704 50.2886 77.7889 40.9536 77.9899V41.005ZM40.9536 38.995V1.90955C50.2886 2.11055 58.8206 5.82915 65.345 11.6583C58.7202 19.196 55.0063 28.8442 54.7052 38.8945H40.9536V38.995ZM38.946 38.995H25.1945C24.9937 28.9447 21.1794 19.2965 14.5546 11.7588C21.079 5.92965 29.611 2.21106 38.946 2.01005V38.995ZM13.1493 66.8342C6.52447 60.201 2.30866 51.0553 2.00753 41.005H23.187C22.9862 50.5528 19.3726 59.598 13.1493 66.8342ZM66.8507 66.8342C60.527 59.598 57.0138 50.5528 56.8131 41.005H77.9925C77.6913 51.0553 73.4755 60.201 66.8507 66.8342ZM77.8921 38.995H56.8131C57.0138 29.4472 60.6274 20.3015 66.8507 13.1658C73.4755 19.6985 77.6913 28.8442 77.8921 38.995ZM13.1493 13.0653C19.473 20.3015 22.9862 29.3467 23.187 38.8945H2.00753C2.30866 28.8442 6.42409 19.6985 13.1493 13.0653Z" fill="black"/>
</svg>
