<svg width="80" height="80" viewBox="0 0 80 80" fill="none" xmlns="http://www.w3.org/2000/svg">
<path d="M40 0C17.9443 0 0 17.9434 0 40C0 62.0557 17.9443 80 40 80C62.0557 80 80 62.0557 80 40C80 17.9443 62.0557 0 40 0ZM74.853 24.3883C70.8171 22.6103 66.9402 21.2782 63.0706 20.338C62.7002 19.0553 61.9155 17.8472 60.7919 16.9106C59.9667 16.222 59.0265 15.7483 58.0611 15.4813C57.0005 11.7088 55.6279 8.01708 53.9829 4.45933C63.2656 8.12584 70.7757 15.3213 74.853 24.3883ZM55.5829 23.1596C53.7366 21.6207 53.1452 19.2764 54.2634 17.9344C54.7515 17.3492 55.5137 17.0319 56.4198 17.0319C56.4683 17.0319 56.516 17.0328 56.5654 17.0346C57.6225 17.0733 58.7146 17.52 59.6404 18.2921C60.5672 19.0643 61.2027 20.0584 61.431 21.0912C61.6405 22.0396 61.4733 22.9016 60.96 23.5173C59.84 24.8602 57.4301 24.6993 55.5829 23.1596ZM40 1.79775C44.0422 1.79775 47.938 2.43416 51.5973 3.6027C53.4364 7.33483 54.9447 11.244 56.1133 15.2422C54.7946 15.3124 53.6611 15.8499 52.8827 16.782C52.4908 17.253 52.2274 17.7951 52.0746 18.3739C49.9029 18.1771 47.5353 18.071 44.9942 18.071C29.7627 18.071 15.2593 22.5196 2.89258 30.9411C6.97079 14.2373 22.0557 1.79775 40 1.79775ZM1.79775 40C1.79775 37.7843 1.9982 35.6162 2.36135 33.5029C14.7569 24.587 29.4876 19.8697 44.9933 19.8697C47.4966 19.8697 49.8238 19.9739 51.9515 20.1681C52.1276 21.7222 52.9825 23.3321 54.4306 24.5393C55.6575 25.5622 57.0903 26.1097 58.4485 26.1915C58.8836 29.3699 59.1128 32.6499 59.1128 35.9613C59.1128 50.987 54.596 65.4148 46.0566 77.716C44.0827 78.0315 42.0602 78.2014 39.9991 78.2014C18.9348 78.2022 1.79775 61.0652 1.79775 40ZM48.5555 77.2243C56.64 64.9582 60.9115 50.7425 60.9115 35.9622C60.9115 32.5825 60.6769 29.2342 60.2346 25.9874C61.0535 25.7519 61.7906 25.3285 62.3398 24.6688C62.9079 23.9883 63.2297 23.1587 63.2998 22.2517C67.404 23.2971 71.5317 24.7973 75.8553 26.818C77.3717 30.9285 78.2014 35.3699 78.2014 40.0009C78.2022 58.1231 65.5128 73.3276 48.5555 77.2243Z" fill="black"/>
</svg>
