<svg width="80" height="80" viewBox="0 0 80 80" fill="none" xmlns="http://www.w3.org/2000/svg">
<path d="M4.55569 22.6791L3.35419 23.8754C2.65332 24.5732 2.25282 25.4704 2.25282 26.4673C2.25282 27.4642 2.65332 28.3614 3.35419 29.0592L7.3592 33.0467C8.06007 33.7445 9.06133 34.1433 9.96245 34.1433C10.8636 34.1433 11.8648 33.7445 12.5657 33.0467L18.6733 26.9657L53.0163 61.3583L46.9086 67.4393C45.5069 68.8349 45.5069 71.2274 46.9086 72.6231L50.9136 76.6106C51.6145 77.3084 52.5156 77.7072 53.5169 77.7072C54.5181 77.7072 55.4193 77.3084 56.1202 76.6106L57.3217 75.4143L60.826 78.9034C61.5269 79.6012 62.428 80 63.4293 80C64.4305 80 65.3317 79.6012 66.0325 78.9034L78.9487 65.8442C80.3504 64.4486 80.3504 62.0561 78.9487 60.6604L75.4443 57.1713L76.6458 55.9751C77.3467 55.2773 77.7472 54.3801 77.7472 53.3832C77.7472 52.3863 77.3467 51.4891 76.6458 50.7913L72.6408 46.8037C71.239 45.4081 68.836 45.4081 67.4343 46.8037L61.5269 52.8847L26.9837 18.5919L33.0914 12.5109C34.4931 11.1153 34.4931 8.72274 33.0914 7.3271L29.0864 3.33956C27.6846 1.94393 25.2816 1.94393 23.8799 3.33956L22.6783 4.53583L19.174 1.04673C17.7722 -0.34891 15.3692 -0.34891 13.9675 1.04673L1.05131 14.0062C-0.350438 15.4019 -0.350438 17.7944 1.05131 19.19L4.55569 22.6791ZM77.5469 62.0561C78.1477 62.6542 78.1477 63.7508 77.5469 64.4486L64.6308 77.3084C64.03 77.9065 62.9287 77.9065 62.2278 77.3084L58.7234 73.8193L74.0426 58.567L77.5469 62.0561ZM68.9362 48.1994C69.2365 47.9003 69.7372 47.7009 70.1377 47.7009C70.5382 47.7009 71.0388 47.9003 71.3392 48.1994L75.3442 52.1869C75.6446 52.486 75.8448 52.8847 75.8448 53.3832C75.8448 53.8816 75.6446 54.2804 75.3442 54.5794L54.6183 75.1153C54.0175 75.7134 52.9161 75.7134 52.2153 75.1153L48.2103 71.1277C47.6095 70.5296 47.6095 69.433 48.2103 68.7352L68.9362 48.1994ZM25.582 19.9875L60.025 54.2804L54.418 59.8629L19.975 25.5701L25.582 19.9875ZM25.3817 4.7352C25.9825 4.13707 27.0839 4.13707 27.7847 4.7352L31.7897 8.72274C32.3905 9.32087 32.3905 10.4174 31.7897 11.1153L11.0638 31.6511C10.4631 32.2492 9.3617 32.2492 8.66083 31.6511L4.65582 27.6636C4.35544 27.3645 4.15519 26.9657 4.15519 26.4673C4.15519 25.9688 4.35544 25.5701 4.65582 25.271L25.3817 4.7352ZM2.45307 15.4019L15.3692 2.54206C15.97 1.94393 17.0713 1.94393 17.7722 2.54206L21.2766 6.03115L5.95745 21.2835L2.45307 17.7944C1.75219 17.0966 1.75219 16.0997 2.45307 15.4019Z" fill="black"/>
</svg>
