<svg width="80" height="80" viewBox="0 0 80 80" fill="none" xmlns="http://www.w3.org/2000/svg">
<path d="M77.0887 0H72.3881C70.5263 0 68.838 1.17383 68.1872 2.92188L47.5525 58.3672H4.74645C3.32436 58.3672 1.99002 58.9971 1.08568 60.0957C0.180844 61.1943 -0.182844 62.6265 0.087241 64.0249L2.03829 74.105C2.98407 78.9771 5.85458 80 8.09618 80H45.4059C49.7487 80 53.6216 77.4004 55.2904 73.3306L79.8442 3.85889C80.1474 2.97021 80.0026 1.98389 79.4571 1.21973C78.9121 0.456055 78.0262 0 77.0887 0ZM70.6754 23.8081H62.5451L64.3164 19.0488H72.3575L70.6754 23.8081ZM53.4256 72.6167C52.0835 75.8872 48.9356 78 45.4059 78H8.09618C7.28788 78 4.82884 78 3.9986 73.7236L2.04804 63.6445C1.89106 62.8345 2.10215 62.0049 2.62623 61.3682C3.14983 60.7319 3.92303 60.3672 4.74645 60.3672H48.2457C48.6625 60.3672 49.0355 60.1079 49.1813 59.7163L61.8008 25.8081H69.9686L53.4256 72.6167ZM77.958 3.20215L73.0643 17.0488H65.0607L70.0582 3.62061C70.419 2.65137 71.3555 2 72.3881 2H77.0887C77.3876 2 77.6591 2.13965 77.8332 2.3833C78.0067 2.62695 78.0511 2.9292 77.958 3.20215Z" fill="black"/>
</svg>
