<svg width="80" height="80" viewBox="0 0 80 80" fill="none" xmlns="http://www.w3.org/2000/svg">
<path d="M78 61.0648V56.9248C78 43.4648 67.0498 32.5146 53.5898 32.5146H39.3457V15.6063C40.7466 15.1752 41.7744 13.8842 41.7744 12.3438V3.42871C41.7744 1.53809 40.2363 0 38.3457 0H3.42871C1.53809 0 0 1.53809 0 3.42871V12.3438C0 13.8842 1.02777 15.1752 2.42871 15.6063V60.9093C1.02777 61.3404 0 62.6314 0 64.1719V71.0869C0 72.9775 1.53809 74.5156 3.42871 74.5156H8.61829C10.6641 77.8013 14.2985 80 18.4458 80C23.3452 80 27.5338 76.9368 29.2229 72.629C30.912 76.9368 35.1006 80 40 80C44.8994 80 49.088 76.9368 50.7771 72.629C52.4662 76.9368 56.6548 80 61.5542 80C65.7015 80 69.3359 77.8013 71.3817 74.5156H76.5713C78.4619 74.5156 80 72.9775 80 71.0869V64.1719C80 62.7926 79.1769 61.6085 78 61.0648ZM2 12.3438V3.42871C2 2.64063 2.64111 2 3.42871 2H38.3457C39.1333 2 39.7744 2.64063 39.7744 3.42871V12.3438C39.7744 13.1318 39.1333 13.7725 38.3457 13.7725H3.42871C2.64111 13.7725 2 13.1318 2 12.3438ZM37.3457 15.7725V25.8682H4.42871V15.7725H37.3457ZM7.6275 72.5156H3.42871C2.64111 72.5156 2 71.875 2 71.0869V64.1719C2 63.3838 2.64111 62.7432 3.42871 62.7432H8.36237C7.41345 64.4224 6.86523 66.3564 6.86523 68.4189C6.86523 69.8627 7.1427 71.2399 7.6275 72.5156ZM18.4458 78C13.1631 78 8.86523 73.7021 8.86523 68.4189C8.86523 63.1357 13.1631 58.8379 18.4458 58.8379C23.729 58.8379 28.0269 63.1357 28.0269 68.4189C28.0269 73.7021 23.729 78 18.4458 78ZM40 78C34.7168 78 30.4189 73.7021 30.4189 68.4189C30.4189 63.1357 34.7168 58.8379 40 58.8379C45.2832 58.8379 49.5811 63.1357 49.5811 68.4189C49.5811 73.7021 45.2832 78 40 78ZM61.5542 78C56.271 78 51.9731 73.7021 51.9731 68.4189C51.9731 63.1357 56.271 58.8379 61.5542 58.8379C66.8369 58.8379 71.1348 63.1357 71.1348 68.4189C71.1348 73.7021 66.8369 78 61.5542 78ZM70.2021 60.7432C68.0793 58.3539 64.9941 56.8379 61.5542 56.8379C56.6548 56.8379 52.4662 59.9011 50.7771 64.2089C49.088 59.9011 44.8994 56.8379 40 56.8379C35.1006 56.8379 30.912 59.9011 29.2229 64.2089C27.5338 59.9011 23.3452 56.8379 18.4458 56.8379C15.0059 56.8379 11.9207 58.3539 9.79785 60.7432H4.42871V27.8682H37.3457V33.5146C37.3457 34.0674 37.7935 34.5146 38.3457 34.5146H53.5898C65.9468 34.5146 76 44.5674 76 56.9248V60.7432H70.2021ZM78 71.0869C78 71.875 77.3589 72.5156 76.5713 72.5156H72.3725C72.8573 71.2399 73.1348 69.8627 73.1348 68.4189C73.1348 66.3564 72.5865 64.4224 71.6376 62.7432H76.5713C77.3589 62.7432 78 63.3838 78 64.1719V71.0869Z" fill="black"/>
</svg>
