<svg width="80" height="80" viewBox="0 0 80 80" fill="none" xmlns="http://www.w3.org/2000/svg">
<path d="M72.335 16.4928C65.0552 6.50665 53.2761 0 40 0C26.7211 0 14.94 6.5094 7.66052 16.499C7.55225 16.5983 7.46375 16.7164 7.40747 16.8547C2.75061 23.3932 0 31.379 0 40C0 48.774 2.8468 56.8917 7.65521 63.4935C7.70746 63.6083 7.78064 63.7106 7.87262 63.799C12.7078 70.3092 19.4744 75.2966 27.3143 77.9261C27.3286 77.9333 27.344 77.9345 27.3585 77.941C31.335 79.2695 35.5825 80 40 80C53.1456 80 64.8279 73.6241 72.1236 63.8043C72.2198 63.7139 72.2949 63.6069 72.3486 63.488C77.1547 56.8872 80 48.7716 80 40C80 31.3777 77.2486 23.3909 72.5905 16.8518C72.5339 16.712 72.4447 16.5928 72.335 16.4928ZM69.613 16.2256H57.2686L53.4473 4.4657C59.8346 6.89105 65.4009 10.9896 69.613 16.2256ZM40 2C43.8532 2 47.5725 2.58087 51.0798 3.65216L55.4333 17.05L49.3511 25.4215L30.6429 25.4257L24.5608 17.0549L28.9152 3.65356C32.424 2.58136 36.145 2 40 2ZM54.7856 44.8003L40.0034 55.5454L25.2168 44.8071L30.8599 27.4258L49.1348 27.4214L54.7856 44.8003ZM26.5475 4.46777L22.7256 16.2305H10.3832C14.5946 10.9936 20.1605 6.8941 26.5475 4.46777ZM8.88165 18.2305H22.9425L29.0248 26.6016L23.2479 44.3958L13.407 47.593L2.01733 39.3181C2.15643 31.4855 4.67407 24.2269 8.88165 18.2305ZM2.04596 41.8113L12.0557 49.0835L8.23969 60.8276C4.61206 55.3145 2.37616 48.8097 2.04596 41.8113ZM9.67828 62.873L14.0251 49.4954L23.8664 46.2979L39.0039 57.2907V67.6378L27.6116 75.9154C20.413 73.4252 14.1874 68.8356 9.67828 62.873ZM40 78C36.5382 78 33.1867 77.5258 29.9974 76.6544L40.0039 69.3838L50.0084 76.6528C46.8173 77.5251 43.4639 78 40 78ZM52.3939 75.9136L41.0039 67.6378V57.2908L56.1371 46.2908L65.9778 49.488L70.3251 62.8688C65.8169 68.832 59.592 73.4222 52.3939 75.9136ZM71.7635 60.8228L67.9473 49.0762L77.9542 41.8058C77.6249 48.8041 75.3902 55.3093 71.7635 60.8228ZM66.5959 47.5857L56.755 44.3884L50.9695 26.5969L57.0516 18.2256H71.1149C75.3236 24.2216 77.8423 31.4802 77.9825 39.3129L66.5959 47.5857Z" fill="black"/>
</svg>
