<svg width="80" height="80" viewBox="0 0 80 80" fill="none" xmlns="http://www.w3.org/2000/svg">
<path d="M20.1685 59.6631C14.5615 59.6631 10 64.2246 10 69.832C10 75.4385 14.5615 80 20.1685 80C25.7749 80 30.3364 75.4385 30.3364 69.832C30.3364 64.2246 25.7749 59.6631 20.1685 59.6631ZM20.1685 78C15.6646 78 12 74.3359 12 69.832C12 65.3281 15.6646 61.6631 20.1685 61.6631C24.6724 61.6631 28.3364 65.3281 28.3364 69.832C28.3364 74.3359 24.6724 78 20.1685 78Z" fill="black"/>
<path d="M41.2949 0C25.5459 0 13.209 13.1982 13.209 30.0469C13.209 43.1616 20.6849 54.0618 31.4254 58.2502C31.431 58.2605 31.4305 58.2721 31.4365 58.2822C34.3813 63.2393 35.9375 68.9355 35.9375 74.7529V75.5938C35.9375 78.0234 37.9141 80 40.3438 80H42.2637C44.6934 80 46.6699 78.0234 46.6699 75.5938V74.7578C46.6699 68.9521 48.2358 63.249 51.1987 58.2666C51.2054 58.2554 51.205 58.2424 51.2112 58.231C61.9263 54.0291 69.3809 43.1423 69.3809 30.0469C69.3809 13.1982 57.0439 0 41.2949 0ZM44.6699 74.7578V75.5938C44.6699 76.9209 43.5903 78 42.2637 78H40.3438C39.0171 78 37.9375 76.9209 37.9375 75.5938V74.7529C37.9375 69.3074 36.649 63.963 34.2014 59.1647C36.4601 59.7719 38.8359 60.0938 41.2949 60.0938C43.7695 60.0938 46.1595 59.767 48.4311 59.1523C45.967 63.9697 44.6699 69.3199 44.6699 74.7578ZM41.2949 58.0938C32.8752 58.0938 25.5112 54.0068 20.7723 47.543H61.8176C57.0787 54.0068 49.7146 58.0938 41.2949 58.0938ZM63.1551 45.543H19.4348C16.7573 41.1293 15.209 35.8196 15.209 30.0469C15.209 14.3193 26.6675 2 41.2949 2C55.9224 2 67.3809 14.3193 67.3809 30.0469C67.3809 35.8196 65.8325 41.1293 63.1551 45.543Z" fill="black"/>
</svg>
