<svg width="80" height="80" viewBox="0 0 80 80" fill="none" xmlns="http://www.w3.org/2000/svg">
<path d="M0 40C0 62.0562 17.9438 80 40 80C40.2875 80 40.5713 79.9843 40.8574 79.9783C40.8826 79.9802 40.9075 79.9941 40.9326 79.9941C40.9835 79.9941 41.032 79.9802 41.0817 79.9726C62.6384 79.3958 80 61.6934 80 40C80 32.4141 77.8772 25.3148 74.1948 19.2646C74.168 19.209 74.1335 19.162 74.0975 19.113C67.0541 7.65717 54.4059 0 40 0C24.9189 0 11.7646 8.39178 4.95038 20.7486C4.92139 20.7906 4.89801 20.8324 4.87604 20.8777C1.76892 26.5621 0 33.0781 0 40ZM37.687 41.1338C38.4851 41.1338 39.1033 41.096 39.5276 41.0585C40.7015 42.7939 44.7912 49.6776 44.3839 60.5807C40.1741 61.0829 19.7908 62.0851 2.04883 38.0759C2.31567 32.7521 3.68909 27.7172 5.9339 23.1873C18.4487 39.3252 32.1786 41.1338 37.687 41.1338ZM55.6219 25.9042C58.1427 29.2871 69.2094 46.4843 57.3188 73.8065C52.8117 76.1249 47.7871 77.5687 42.4646 77.9114C51.3005 56.2651 43.0848 42.6319 41.1519 39.8782C42.061 37.9927 45.9556 31.0037 55.6219 25.9042ZM2.03412 41.3447C17.0133 60.2538 33.5999 62.7383 41.2637 62.7383C42.5233 62.7383 43.5319 62.671 44.2628 62.599C43.8732 67.1274 42.6905 72.2845 40.2657 77.9933C40.1768 77.9939 40.0891 78 40 78C19.4978 78 2.74615 61.6764 2.03412 41.3447ZM60.1481 72.1965C70.4938 46.0732 60.4553 29.2123 57.4334 24.9999C61.5462 23.0793 66.6016 21.53 72.7579 20.7747C76.0834 26.4191 78 32.9883 78 40C78 53.5557 70.8597 65.4689 60.1481 72.1965ZM71.5925 18.9106C48.4336 22.0833 40.7364 36.0132 39.3184 39.0634C37.231 39.2189 29.2312 39.341 19.9817 33.5193C21.6498 29.6467 31.0074 11.4663 60.6088 8.09918C64.962 10.9212 68.7073 14.6026 71.5925 18.9106ZM40 2C46.4373 2 52.5026 3.61438 57.8214 6.45123C30.0144 10.5505 20.4296 27.6793 18.2927 32.4024C14.5733 29.8009 10.7042 26.1974 6.97205 21.2437C13.5176 9.763 25.8655 2 40 2Z" fill="black"/>
</svg>
